<svg width="48" height="47" viewBox="0 0 48 47" fill="none" xmlns="http://www.w3.org/2000/svg">
<g filter="url(#filter0_d_301_573)">
<path d="M32.1562 20.2344C32.7188 20.5625 33 21.0547 33 21.7109C33 22.3672 32.7188 22.8594 32.1562 23.1875L19.7812 30.2891C19.3594 30.4766 18.9609 30.5469 18.5859 30.5C18.2109 30.4062 17.8828 30.2188 17.6016 29.9375C17.3672 29.6094 17.25 29.2344 17.25 28.8125V14.1875C17.25 13.5312 17.5312 13.0391 18.0938 12.7109C18.6562 12.3828 19.2188 12.3828 19.7812 12.7109L32.1562 20.2344ZM36.3047 9.19531C39.7266 12.5703 41.4375 16.6719 41.4375 21.5C41.4375 26.3281 39.7266 30.4531 36.3047 33.875C32.9297 37.25 28.8281 38.9375 24 38.9375C19.1719 38.9375 15.0469 37.25 11.625 33.875C8.25 30.4531 6.5625 26.3281 6.5625 21.5C6.5625 16.6719 8.25 12.5703 11.625 9.19531C15.0469 5.77344 19.1719 4.0625 24 4.0625C28.8281 4.0625 32.9297 5.77344 36.3047 9.19531ZM14.0156 11.5859C11.2969 14.3047 9.9375 17.6094 9.9375 21.5C9.9375 25.3906 11.2969 28.7188 14.0156 31.4844C16.7812 34.2031 20.1094 35.5625 24 35.5625C27.8906 35.5625 31.1953 34.2031 33.9141 31.4844C36.6797 28.7188 38.0625 25.3906 38.0625 21.5C38.0625 17.6094 36.6797 14.3047 33.9141 11.5859C31.1953 8.82031 27.8906 7.4375 24 7.4375C20.1094 7.4375 16.7812 8.82031 14.0156 11.5859Z" fill="url(#paint0_linear_301_573)"/>
</g>
<defs>
<filter id="filter0_d_301_573" x="0.5625" y="0.0625" width="46.875" height="46.875" filterUnits="userSpaceOnUse" color-interpolation-filters="sRGB">
<feFlood flood-opacity="0" result="BackgroundImageFix"/>
<feColorMatrix in="SourceAlpha" type="matrix" values="0 0 0 0 0 0 0 0 0 0 0 0 0 0 0 0 0 0 127 0" result="hardAlpha"/>
<feOffset dy="2"/>
<feGaussianBlur stdDeviation="3"/>
<feColorMatrix type="matrix" values="0 0 0 0 0 0 0 0 0 0 0 0 0 0 0 0 0 0 0.15 0"/>
<feBlend mode="normal" in2="BackgroundImageFix" result="effect1_dropShadow_301_573"/>
<feBlend mode="normal" in="SourceGraphic" in2="effect1_dropShadow_301_573" result="shape"/>
</filter>
<linearGradient id="paint0_linear_301_573" x1="6.96774" y1="21" x2="42" y2="21" gradientUnits="userSpaceOnUse">
<stop stop-color="#90CEA1"/>
<stop offset="1" stop-color="#3CBEC9"/>
</linearGradient>
</defs>
</svg>
